<?xml version="1.0" encoding="UTF-8"?>
<svg id="a" xmlns="http://www.w3.org/2000/svg" viewBox="0 0 64 64">
  <defs>
    <style>
      .cls-1 {
        fill: #d17dfe;
      }

      .cls-1, .cls-2, .cls-3 {
        stroke-width: 0px;
      }

      .cls-2 {
        fill: #481a54;
      }

      .cls-3 {
        fill: #fff;
      }
    </style>
  </defs>
  <path class="cls-2" d="M56.52,35.78c.2-1.23.31-2.45.31-3.78,0-14.73-11.97-26.7-26.7-26.7h-.51c-14.53.31-26.19,12.17-26.19,26.7s11.76,26.49,26.39,26.7h.41c5.52,0,10.74-1.74,15.04-4.6l1.64,1.64c.41.41.92.61,1.43.51.51,0,1.02-.2,1.43-.51l2.45-2.45,6.34-6.34c.61-.61,1.23-1.43,1.53-2.25,1.33-3.48-.2-7.36-3.58-8.9Z"/>
  <path class="cls-3" d="M48.23,51.33l-1.64-1.64-5.83-5.73c-1.13-1.13-1.13-2.86,0-3.89.51-.51,1.23-.82,1.94-.82.31,0,.61,0,.82.1.41.1.82.31,1.13.72l2.05,2.05c.41.41.92.61,1.43.61s1.02-.2,1.43-.61l1.23-1.23.82-.82c.41-.41.92-.72,1.53-.82h.51c.72,0,1.33.2,1.84.72l.1.1c1.13,1.13,1.13,2.86,0,3.89l-4.71,4.71-2.66,2.66Z"/>
  <path class="cls-1" d="M35.96,42.84c-1.23-.2-2.66-.41-4.09-.41v-8.39h8.29c0,.61-.1,1.13-.1,1.74-2.86,1.23-4.5,4.19-4.09,7.06Z"/>
  <path class="cls-1" d="M38.21,22.18c.2-.1.41-.1.61-.2.72,2.25,1.13,4.91,1.23,7.88h-8.29v-6.85c2.45,0,4.6-.31,6.44-.82Z"/>
  <path class="cls-1" d="M31.86,19.01v-7.98c1.74,1.33,3.78,3.68,5.52,7.16-1.64.41-3.48.72-5.52.82Z"/>
  <path class="cls-1" d="M44.14,35.27c0-.41.1-.82.1-1.23h8.39c0,.41-.1.82-.2,1.23-1.43.2-2.66.92-3.68,1.94l-.31.31-.2.2-.2-.2-.31-.41c-1.02-.92-2.25-1.64-3.58-1.84Z"/>
  <path class="cls-1" d="M52.63,29.95h-8.39c-.1-3.58-.72-6.65-1.53-9.31,2.45-1.02,4.19-2.15,5.11-2.76,2.66,3.38,4.4,7.57,4.81,12.07Z"/>
  <path class="cls-1" d="M41.27,16.86c-1.23-2.66-2.66-4.71-4.09-6.34,2.86.92,5.42,2.46,7.67,4.4-.72.51-1.94,1.23-3.58,1.94Z"/>
  <path class="cls-1" d="M31.86,46.53c1.74.1,3.38.31,4.81.61-1.53,2.76-3.38,4.6-4.81,5.83v-6.44Z"/>
  <path class="cls-1" d="M37.18,53.48c1.02-1.13,2.05-2.56,3.07-4.3l1.94,1.94c-1.64.92-3.27,1.74-5.01,2.35Z"/>
  <path class="cls-1" d="M21.63,43.66c-.92-2.66-1.64-5.83-1.84-9.62h7.98v8.49c-1.94.2-3.99.61-6.14,1.13Z"/>
  <path class="cls-1" d="M27.77,46.63v6.04c-1.33-1.13-2.97-2.86-4.3-5.22,1.43-.41,2.86-.61,4.3-.82Z"/>
  <path class="cls-1" d="M22.56,53.28c-2.15-.82-4.19-1.84-6.04-3.27,1.02-.51,1.94-.92,2.86-1.33,1.02,1.84,2.15,3.38,3.17,4.6Z"/>
  <path class="cls-1" d="M19.79,29.95c.1-3.17.61-5.93,1.33-8.29,2.35.72,4.5,1.13,6.55,1.33v6.96h-7.88Z"/>
  <path class="cls-1" d="M18.77,16.45c-1.13-.51-2.25-1.02-3.38-1.64,2.05-1.84,4.5-3.17,7.16-4.19-1.33,1.64-2.66,3.48-3.78,5.83Z"/>
  <path class="cls-1" d="M17.34,20.34c-.82,2.76-1.43,5.93-1.64,9.62H7.62c.41-4.5,2.15-8.69,4.91-12.07,1.53.92,3.17,1.74,4.81,2.45Z"/>
  <path class="cls-1" d="M15.7,34.05c.2,4.4,1.02,7.98,2.05,10.95-1.43.61-2.97,1.33-4.4,2.15-3.17-3.58-5.32-8.08-5.73-13.09h8.08Z"/>
  <path class="cls-1" d="M27.77,18.91c-1.64-.2-3.27-.51-5.11-1.02,1.53-3.17,3.48-5.22,5.11-6.65v7.67Z"/>
</svg>