<?xml version="1.0" encoding="UTF-8"?>
<svg id="a" xmlns="http://www.w3.org/2000/svg" viewBox="0 0 64 64">
  <defs>
    <style>
      .cls-1 {
        fill: #d17dfe;
      }

      .cls-1, .cls-2, .cls-3 {
        stroke-width: 0px;
      }

      .cls-2 {
        fill: #481a54;
      }

      .cls-3 {
        fill: #fff;
      }
    </style>
  </defs>
  <path class="cls-2" d="M34.2,5.48c-10.94-1.24-20.83,6.66-22.06,17.59-.76,6.47,1.71,12.84,6.56,17.12.57.48.95,1.24.95,2v14.55c0,1.05.86,1.9,1.9,1.9h20.92c1.05,0,1.9-.86,1.9-1.9v-14.46c0-.76.38-1.52.95-2,3.61-3.23,5.99-7.8,6.56-12.65,1.14-11.03-6.75-20.92-17.69-22.16Z"/>
  <path class="cls-3" d="M40.48,48.18h-17.12v6.66h17.12v-6.66Z"/>
  <path class="cls-1" d="M42.66,37.44c-1.33,1.24-2.19,2.95-2.19,4.85v2.09h-6.66v-9.51c0-.57-.29-1.14-.76-1.52l-2.47-1.9,6.85-3.42c.38-.19.67-.48.86-.86.48-.95.1-2.09-.86-2.57l-6.85-3.42,2.47-1.9c.86-.67.95-1.9.29-2.66-.67-.86-1.9-.95-2.66-.29l-4.76,3.8c-.19.19-.38.38-.48.67-.48.95-.1,2.09.86,2.57l6.09,3.04-6.09,3.04c-.29.1-.48.29-.67.48-.67.86-.48,2,.29,2.66l4.09,3.23v8.56h-6.66v-2.09c0-1.9-.86-3.61-2.19-4.85-.48-.38-.86-.86-1.24-1.24-5.99-6.66-5.42-16.83,1.24-22.83,6.66-5.99,16.83-5.42,22.83,1.24,5.99,6.66,5.33,16.83-1.33,22.83Z"/>
</svg>