<?xml version="1.0" encoding="UTF-8"?>
<svg id="a" xmlns="http://www.w3.org/2000/svg" viewBox="0 0 64 64">
  <defs>
    <style>
      .cls-1 {
        fill: #d17dfe;
      }

      .cls-1, .cls-2, .cls-3 {
        stroke-width: 0px;
      }

      .cls-2 {
        fill: #481a54;
      }

      .cls-3 {
        fill: #fff;
      }
    </style>
  </defs>
  <path class="cls-2" d="M55.85,46.56h-2.01v-18.07h2.01c1.1,0,2.01-.9,2.01-2.01s-.9-2.01-2.01-2.01h-2.11c-.9-8.33-7.63-15.06-15.97-15.97v-1.1c0-1.1-.9-2.01-2.01-2.01s-2.01.9-2.01,2.01v1.1c-3.01.3-5.82,1.41-8.23,3.11-1-.2-2.01-.4-3.11-.4-7.13,0-12.85,5.72-12.85,12.85,0,4.32,2.21,8.23,5.52,10.54-5.32,2.61-9.04,8.13-9.04,14.46v7.53c0,1.1.9,2.01,2.01,2.01h47.9c1.1,0,2.01-.9,2.01-2.01v-8.03c-.1-1.1-1-2.01-2.11-2.01Z"/>
  <path class="cls-3" d="M41.79,46.56h-3.21c-.2-1.1-.5-2.21-.8-3.21v-14.86h4.02v18.07Z"/>
  <path class="cls-3" d="M29.74,34.61c1.71-1.1,3.01-2.71,4.02-4.52v7.23c-1.21-1-2.51-2.01-4.02-2.71Z"/>
  <path class="cls-3" d="M49.82,28.49h-4.02v18.07h4.02v-18.07Z"/>
  <path class="cls-1" d="M38.88,50.58h14.96v4.02h-14.96v-4.02Z"/>
  <path class="cls-1" d="M35.36,24.07v.4h14.46c-1-6.83-6.83-12.05-13.96-12.05-2.11,0-4.02.5-5.82,1.31,3.21,2.31,5.32,6.02,5.32,10.34Z"/>
  <path class="cls-1" d="M34.86,50.38v-1.81c0-.7-.1-1.41-.2-2.01-.2-.8-.5-1.61-.8-2.41-.9-1.91-2.31-3.61-4.02-4.92-1.2-.9-2.51-1.51-4.02-1.91-1.1-.3-2.21-.5-3.31-.5h-.7c-1.41.1-2.81.4-4.02.9-4.52,1.81-7.73,6.13-7.73,11.25v5.52h24.9v-4.12h-.1Z"/>
  <path class="cls-1" d="M17.69,31.5c1.2.8,2.51,1.2,4.02,1.41h.7c1.1,0,2.21-.2,3.31-.6,1.61-.7,3.01-1.81,4.02-3.21.1-.2.2-.4.3-.5.4-.6.7-1.31.9-2.01.2-.6.3-1.31.3-2.01v-.4c0-3.51-2.01-6.53-5.02-7.93-.7-.3-1.41-.6-2.11-.7-.5-.1-1.1-.2-1.71-.2h-.8c-4.42.4-7.93,4.22-7.93,8.74,0,.6.1,1.2.2,1.71.2.9.5,1.71.9,2.41.6,1.31,1.71,2.51,2.91,3.31Z"/>
</svg>